<svg width="31" height="30" viewBox="0 0 31 30" fill="none" xmlns="http://www.w3.org/2000/svg">
<path d="M22.9517 10C22.9517 8.01088 22.1615 6.10322 20.755 4.6967C19.3484 3.29018 17.4408 2.5 15.4517 2.5C13.4625 2.5 11.5549 3.29018 10.1484 4.6967C8.74184 6.10322 7.95166 8.01088 7.95166 10C7.95166 18.75 4.20166 21.25 4.20166 21.25H26.7017C26.7017 21.25 22.9517 18.75 22.9517 10Z" stroke="#0A347F" stroke-width="2" stroke-linecap="round" stroke-linejoin="round"/>
<path d="M17.6141 26.25C17.3943 26.6288 17.0789 26.9433 16.6993 27.1619C16.3198 27.3805 15.8895 27.4956 15.4516 27.4956C15.0136 27.4956 14.5833 27.3805 14.2038 27.1619C13.8243 26.9433 13.5088 26.6288 13.2891 26.25" stroke="#0A347F" stroke-width="2" stroke-linecap="round" stroke-linejoin="round"/>
</svg>
