<svg width="25" height="25" viewBox="0 0 25 25" fill="none" xmlns="http://www.w3.org/2000/svg">
<g clip-path="url(#clip0_2_1871)">
<path d="M23.0363 4.89111V10.893H17.0344" stroke="black" stroke-width="2.00062" stroke-linecap="round" stroke-linejoin="round"/>
<path d="M20.5254 15.8944C19.8752 17.7348 18.6444 19.3141 17.0185 20.3943C15.3926 21.4744 13.4597 21.9968 11.5111 21.8828C9.56243 21.7688 7.70363 21.0246 6.21477 19.7622C4.72591 18.4999 3.68766 16.7878 3.25647 14.8841C2.82527 12.9803 3.02451 10.988 3.82414 9.20735C4.62377 7.42668 5.98048 5.95414 7.68983 5.01162C9.39917 4.06911 11.3685 3.70768 13.3012 3.98181C15.2338 4.25594 17.025 5.15077 18.4048 6.53146L23.0362 10.8928" stroke="black" stroke-width="2.00062" stroke-linecap="round" stroke-linejoin="round"/>
</g>
<defs>
<clipPath id="clip0_2_1871">
<rect width="24.0074" height="24.0074" fill="white" transform="translate(0.0292969 0.890137)"/>
</clipPath>
</defs>
</svg>
