<svg width="24" height="24" viewBox="0 0 24 24" fill="none" xmlns="http://www.w3.org/2000/svg">
<path d="M7.82623 10.7609H4.89145C3.27047 10.7609 1.95667 9.44709 1.95667 7.82611V4.89133C1.95667 3.27035 3.27047 1.95654 4.89145 1.95654H7.82623C9.44721 1.95654 10.761 3.27035 10.761 4.89133V7.82611C10.761 9.44709 9.44721 10.7609 7.82623 10.7609Z" fill="#0A347F"/>
<path opacity="0.35" d="M18.5876 10.7609H15.6529C14.0319 10.7609 12.7181 9.44709 12.7181 7.82611V4.89133C12.7181 3.27035 14.0319 1.95654 15.6529 1.95654H18.5876C20.2086 1.95654 21.5224 3.27035 21.5224 4.89133V7.82611C21.5224 9.44709 20.2086 10.7609 18.5876 10.7609Z" fill="#005EEA"/>
<path opacity="0.35" d="M7.82623 21.5216H4.89145C3.27047 21.5216 1.95667 20.2078 1.95667 18.5869V15.6521C1.95667 14.0311 3.27047 12.7173 4.89145 12.7173H7.82623C9.44721 12.7173 10.761 14.0311 10.761 15.6521V18.5869C10.761 20.2078 9.44721 21.5216 7.82623 21.5216Z" fill="#005EEA"/>
<path opacity="0.35" d="M18.5876 21.5216H15.6529C14.0319 21.5216 12.7181 20.2078 12.7181 18.5869V15.6521C12.7181 14.0311 14.0319 12.7173 15.6529 12.7173H18.5876C20.2086 12.7173 21.5224 14.0311 21.5224 15.6521V18.5869C21.5224 20.2078 20.2086 21.5216 18.5876 21.5216Z" fill="#005EEA"/>
<path d="M4.89152 14.1849C4.89152 14.9969 4.23608 15.6523 3.42412 15.6523C2.82738 15.6523 2.30891 15.2904 2.09369 14.7817C2.37738 13.8621 3.1013 13.1382 4.02086 12.8545C4.52956 13.0697 4.89152 13.5882 4.89152 14.1849Z" fill="#0A347F"/>
<path d="M10.624 14.7817C10.4088 15.2904 9.8903 15.6523 9.29356 15.6523C8.48161 15.6523 7.82617 14.9969 7.82617 14.1849C7.82617 13.5882 8.18813 13.0697 8.69682 12.8545C9.61639 13.1382 10.3403 13.8621 10.624 14.7817Z" fill="#0A347F"/>
<path d="M4.89152 20.0546C4.89152 20.6513 4.52956 21.1698 4.02086 21.385C3.1013 21.1013 2.37738 20.3774 2.09369 19.4578C2.30891 18.9491 2.82738 18.5872 3.42412 18.5872C4.23608 18.5872 4.89152 19.2426 4.89152 20.0546Z" fill="#0A347F"/>
<path d="M10.624 19.4578C10.3403 20.3774 9.61639 21.1013 8.69682 21.385C8.18813 21.1698 7.82617 20.6513 7.82617 20.0546C7.82617 19.2426 8.48161 18.5872 9.29356 18.5872C9.8903 18.5872 10.4088 18.9491 10.624 19.4578Z" fill="#0A347F"/>
<path d="M6.35954 18.5869C7.16996 18.5869 7.82694 17.9299 7.82694 17.1195C7.82694 16.3091 7.16996 15.6521 6.35954 15.6521C5.54912 15.6521 4.89215 16.3091 4.89215 17.1195C4.89215 17.9299 5.54912 18.5869 6.35954 18.5869Z" fill="#0A347F"/>
<path d="M21.2376 14.3904L14.3898 21.2382C13.7833 20.9447 13.2941 20.4556 13.0007 19.8491L19.8485 13.0012C20.455 13.2947 20.9442 13.7838 21.2376 14.3904Z" fill="#0A347F"/>
<path d="M17.042 12.7173L12.7181 17.0412V15.6521C12.7181 14.0282 14.0289 12.7173 15.6529 12.7173H17.042Z" fill="#0A347F"/>
<path d="M21.5215 17.1978V18.5869C21.5215 20.2108 20.2107 21.5217 18.5868 21.5217H17.1976L21.5215 17.1978Z" fill="#0A347F"/>
</svg>
