<svg width="18" height="22" viewBox="0 0 18 22" fill="none" xmlns="http://www.w3.org/2000/svg">
<path d="M10.8624 0.942871H2.65061C2.10613 0.942871 1.58396 1.15916 1.19895 1.54417C0.813949 1.92917 0.597656 2.45135 0.597656 2.99583V19.4195C0.597656 19.9639 0.813949 20.4861 1.19895 20.8711C1.58396 21.2561 2.10613 21.4724 2.65061 21.4724H14.9683C15.5128 21.4724 16.035 21.2561 16.42 20.8711C16.805 20.4861 17.0213 19.9639 17.0213 19.4195V7.10173L10.8624 0.942871Z" fill="#0A347F" stroke="#A9B8D2" stroke-width="0.511457" stroke-linecap="round" stroke-linejoin="round"/>
<path d="M10.8625 0.942871V7.10175H17.0214" fill="#A9B8D2"/>
<path d="M10.8625 0.942871V7.10175H17.0214" stroke="#A9B8D2" stroke-width="0.511457" stroke-linecap="round" stroke-linejoin="round"/>
<path d="M12.9167 12.2341H4.70483" stroke="#A9B8D2" stroke-width="0.511457" stroke-linecap="round" stroke-linejoin="round"/>
<path d="M12.9167 16.3401H4.70483" stroke="#A9B8D2" stroke-width="0.511457" stroke-linecap="round" stroke-linejoin="round"/>
<path d="M6.75779 8.12842H5.73131H4.70483" fill="#A9B8D2"/>
<path d="M6.75779 8.12842H5.73131H4.70483" stroke="#A9B8D2" stroke-width="0.511457" stroke-linecap="round" stroke-linejoin="round"/>
</svg>
