<svg width="19" height="25" viewBox="0 0 19 25" fill="none" xmlns="http://www.w3.org/2000/svg">
<path d="M15.2616 7.81943C16.8814 7.81943 18.1944 6.32159 18.1944 4.47392C18.1944 2.62625 16.8814 1.12842 15.2616 1.12842C13.6419 1.12842 12.3289 2.62625 12.3289 4.47392C12.3289 6.32159 13.6419 7.81943 15.2616 7.81943Z" fill="#0A347F" stroke="#A9B8D2" stroke-width="1.16904" stroke-linecap="round" stroke-linejoin="round"/>
<path d="M3.53045 15.6259C5.15018 15.6259 6.46323 14.128 6.46323 12.2803C6.46323 10.4327 5.15018 8.93481 3.53045 8.93481C1.91071 8.93481 0.597656 10.4327 0.597656 12.2803C0.597656 14.128 1.91071 15.6259 3.53045 15.6259Z" fill="#0A347F" stroke="#A9B8D2" stroke-width="1.16904" stroke-linecap="round" stroke-linejoin="round"/>
<path d="M15.2616 23.4323C16.8814 23.4323 18.1944 21.9344 18.1944 20.0867C18.1944 18.2391 16.8814 16.7412 15.2616 16.7412C13.6419 16.7412 12.3289 18.2391 12.3289 20.0867C12.3289 21.9344 13.6419 23.4323 15.2616 23.4323Z" fill="#0A347F" stroke="#A9B8D2" stroke-width="1.16904" stroke-linecap="round" stroke-linejoin="round"/>
<path d="M6.06226 13.9641L12.7392 18.4025" stroke="#A9B8D2" stroke-width="1.16904" stroke-linecap="round" stroke-linejoin="round"/>
<path d="M12.7295 6.15771L6.06226 10.5961" stroke="#A9B8D2" stroke-width="1.16904" stroke-linecap="round" stroke-linejoin="round"/>
</svg>
